<?xml version="1.0" encoding="utf-8"?>
<!-- Generator: Adobe Illustrator 21.0.0, SVG Export Plug-In . SVG Version: 6.00 Build 0)  -->
<svg version="1.1" id="图层_1" xmlns="http://www.w3.org/2000/svg" xmlns:xlink="http://www.w3.org/1999/xlink" x="0px" y="0px"
	 viewBox="0 0 16 16" style="enable-background:new 0 0 16 16;" xml:space="preserve">
<style type="text/css">
	.st0{fill:#ff6347;}
</style>
<g>
	<path class="st0" d="M15,16H1c-0.6,0-1-0.4-1-1V1c0-0.6,0.4-1,1-1s1,0.4,1,1v13h13c0.6,0,1,0.4,1,1S15.6,16,15,16z"/>
</g>
<g>
	<path class="st0" d="M3.8,9.9c-0.3,0-0.5-0.1-0.7-0.3c-0.4-0.4-0.4-1,0-1.4l3.5-3.5c0.4-0.4,0.9-0.4,1.3-0.1l2.8,2.2l3.2-2.9
		c0.4-0.4,1-0.3,1.4,0.1c0.4,0.4,0.3,1-0.1,1.4l-3.8,3.5c-0.4,0.3-0.9,0.3-1.3,0L7.3,6.7L4.5,9.6C4.3,9.8,4,9.9,3.8,9.9z"/>
</g>
</svg>
